#!OML:ASF I:\Actors\actors\Patient Classification 1\Patient 1\Session 1\Subject1.ASF
:FULLY-SPECIFIED
:DEGREES
874
root 0.84405 17.4556 8.88187 6.54346 1.32134 -9.05355
lowerback -0.0100694 1.63411 7.60686
upperback -7.79458 2.61725 1.0767
thorax -7.94465 0.823181 -3.28228
lowerneck -11.5018 -5.7628 -3.27467
upperneck 17.4455 -8.92282 8.17287
head 7.80209 -3.74097 2.29708
rclavicle -7.95139e-016 1.82882e-014
rhumerus -66.2187 -45.4895 -34.308
rradius 15.7341
rwrist 50.8908
rhand 19.6156 -34.8023
rfingers 7.12502
rthumb 44.1768 -418.619
lclavicle -7.95139e-016 1.82882e-014
lhumerus 89.8504 128.412 179.2
lradius 14.7504
lwrist -62.5315
lhand -15.605 -9.37852
lfingers 7.12502
lthumb 10.5812 20.3351
rfemur -1.2374 22.8379 27.2895
rtibia 5.22158
rfoot -13.7607 -22.7032
rtoes 2.25837
lfemur 5.98084 -37.8396 -11.1075
ltibia -3.28232
lfoot -13.4913 43.9023
ltoes -0.713366
875
root 0.841548 17.4562 8.88533 6.58931 1.35659 -9.09079
lowerback 0.0361234 1.64681 7.64858
upperback -7.81645 2.64089 1.05723
thorax -7.99143 0.828888 -3.32941
lowerneck -11.5497 -5.77084 -3.15574
upperneck 17.7019 -8.97897 8.16838
head 7.89357 -3.75131 2.26831
rclavicle 1.41137e-014 3.97569e-014
rhumerus -66.7144 -45.1143 -34.2125
rradius 15.9343
rwrist 50.3014
rhand 19.1223 -34.8115
rfingers 7.12502
rthumb 43.7166 -418.799
lclavicle 1.41137e-014 3.97569e-014
lhumerus 90.0082 128.917 179.499
lradius 14.8211
lwrist -61.5019
lhand -16.3838 -9.47673
lfingers 7.12502
lthumb 9.82984 20.2738
rfemur -1.26265 22.8743 27.3449
rtibia 5.21894
rfoot -13.7909 -22.772
rtoes 2.10544
lfemur 5.86872 -37.7697 -10.9781
ltibia -3.23932
lfoot -13.4166 43.8089
ltoes -0.920272
876
root 0.840701 17.4571 8.89053 6.63109 1.37785 -9.0653
lowerback -0.568566 1.56501 7.34549
upperback -7.3923 2.44813 1.27528
thorax -7.20962 0.801724 -2.8943
lowerneck -11.839 -5.71342 -3.17236
upperneck 17.534 -8.85047 8.04348
head 7.87654 -3.69919 2.23716
rclavicle -2.23633e-015 -1.31198e-014
rhumerus -66.473 -45.4389 -34.1002
rradius 15.9498
rwrist 50.5085
rhand 18.6646 -34.698
rfingers 7.12502
rthumb 43.2891 -418.841
lclavicle -2.23633e-015 -1.31198e-014
lhumerus 89.3167 128.647 179.237
lradius 14.9248
lwrist -60.3945
lhand -16.6576 -9.56109
lfingers 7.12502
lthumb 9.5657 20.2018
rfemur -1.26914 22.8767 27.3144
rtibia 5.19867
rfoot -13.8486 -22.8061
rtoes 2.14105
lfemur 5.82016 -37.8077 -10.9937
ltibia -3.19508
lfoot -13.5399 43.8177
ltoes -0.719108
877
root 0.840055 17.4582 8.89334 6.68626 1.37755 -8.9997
lowerback -0.522643 1.57963 7.29281
upperback -7.42282 2.4707 1.25152
thorax -7.26736 0.812554 -2.89308
lowerneck -11.8621 -5.74495 -3.31366
upperneck 17.7046 -8.9149 8.20474
head 7.95561 -3.71853 2.30502
rclavicle -6.01324e-015 -2.42517e-014
rhumerus -66.9534 -45.3002 -33.783
rradius 16.0006
rwrist 50.4856
rhand 18.2529 -34.5401
rfingers 7.12502
rthumb 42.9042 -418.82
lclavicle -6.01324e-015 -2.42517e-014
lhumerus 89.9924 129.009 180.216
lradius 14.9771
lwrist -58.8898
lhand -16.6324 -9.45539
lfingers 7.12502
lthumb 9.59007 20.3063
rfemur -1.30714 22.863 27.2177
rtibia 5.17314
rfoot -13.8725 -22.8172
rtoes 2.15195
lfemur 5.78162 -37.8809 -11.0591
ltibia -3.1866
lfoot -13.7435 43.8902
ltoes -0.329012
878
root 0.839815 17.4592 8.89447 6.72553 1.35517 -8.94388
lowerback -0.470001 1.61273 7.24914
upperback -7.43733 2.51825 1.23206
thorax -7.30898 0.836278 -2.89363
lowerneck -11.9745 -5.78112 -3.36177
upperneck 17.9722 -8.99996 8.30536
head 8.07759 -3.74152 2.33308
rclavicle 3.27498e-014 7.15625e-015
rhumerus -67.2207 -45.1438 -33.6766
rradius 16.0563
rwrist 50.3195
rhand 17.9733 -34.4417
rfingers 7.12502
rthumb 42.6426 -418.813
lclavicle 3.27498e-014 7.15625e-015
lhumerus 90.4421 129.224 180.859
lradius 14.9852
lwrist -57.7843
lhand -16.4702 -9.17326
lfingers 7.12502
lthumb 9.74657 20.5812
rfemur -1.34365 22.8749 27.1378
rtibia 5.15885
rfoot -13.8375 -22.8291
rtoes 1.95431
lfemur 5.76126 -37.9208 -11.1145
ltibia -3.19778
lfoot -13.8083 43.9453
ltoes -0.186182
879
root 0.839713 17.4599 8.89532 6.7403 1.35439 -8.92645
lowerback -0.409382 1.65363 7.2451
upperback -7.44384 2.57855 1.22099
thorax -7.34473 0.864522 -2.90822
lowerneck -12.0568 -5.79622 -3.21653
upperneck 18.2269 -9.05627 8.22715
head 8.17055 -3.75564 2.27469
rclavicle -1.90336e-014 -2.10712e-014
rhumerus -67.6706 -45.1304 -33.2945
rradius 16.148
rwrist 50.2553
rhand 17.8194 -34.1994
rfingers 7.12502
rthumb 42.4986 -418.62
lclavicle -1.90336e-014 -2.10712e-014
lhumerus 90.8558 129.377 181.453
lradius 15.0082
lwrist -56.9815
lhand -16.1537 -8.84531
lfingers 7.12502
lthumb 10.0519 20.8946
rfemur -1.3491 22.8702 27.1133
rtibia 5.15301
rfoot -13.8441 -22.819
rtoes 1.861
lfemur 5.73693 -37.8877 -11.1152
ltibia -3.19249
lfoot -13.7871 43.9028
ltoes -0.231394
